<?xml version="1.0" encoding="UTF-8" standalone="no"?>
<!-- Created with Inkscape (http://www.inkscape.org/) -->

<svg
   xmlns:dc="http://purl.org/dc/elements/1.1/"
   xmlns:cc="http://creativecommons.org/ns#"
   xmlns:rdf="http://www.w3.org/1999/02/22-rdf-syntax-ns#"
   xmlns:svg="http://www.w3.org/2000/svg"
   xmlns="http://www.w3.org/2000/svg"
   xmlns:sodipodi="http://sodipodi.sourceforge.net/DTD/sodipodi-0.dtd"
   xmlns:inkscape="http://www.inkscape.org/namespaces/inkscape"
   version="1.1"
   width="26.79183"
   height="108.29183"
   id="svg2"
   xml:space="preserve"
   inkscape:version="0.48.5 r10040"
   sodipodi:docname="halftower.eps"><sodipodi:namedview
     pagecolor="#ffffff"
     bordercolor="#666666"
     borderopacity="1"
     objecttolerance="10"
     gridtolerance="10"
     guidetolerance="10"
     inkscape:pageopacity="0"
     inkscape:pageshadow="2"
     inkscape:window-width="1384"
     inkscape:window-height="625"
     id="namedview22"
     showgrid="false"
     inkscape:zoom="2.6434892"
     inkscape:cx="25.278315"
     inkscape:cy="60.918287"
     inkscape:window-x="0"
     inkscape:window-y="0"
     inkscape:window-maximized="0"
     inkscape:current-layer="layer1"
     units="mm"
     inkscape:document-units="mm"
     fit-margin-top="0"
     fit-margin-left="0"
     fit-margin-right="0"
     fit-margin-bottom="0"
     showguides="true"
     inkscape:guide-bbox="true" /><metadata
     id="metadata8"><rdf:RDF><cc:Work
         rdf:about=""><dc:format>image/svg+xml</dc:format><dc:type
           rdf:resource="http://purl.org/dc/dcmitype/StillImage" /><dc:title></dc:title></cc:Work></rdf:RDF></metadata><defs
     id="defs6"><clipPath
       id="clipPath16"><path
         d="M 0,840 592,840 592,0 0,0 0,840 z"
         id="path18"
         inkscape:connector-curvature="0" /></clipPath></defs><g
     inkscape:groupmode="layer"
     id="layer1"
     inkscape:label="Layer"
     transform="translate(-83.166585,-3.5103346)"><g
       id="g3823"
       transform="matrix(-1,0,0,1,193.125,0)"><path
         id="path3821"
         d="m 107.59375,3.6875 0,1 0,34.40625 c -3.01454,0.344937 -5.65625,1.46902 -5.65625,3.8125 l 0,0.96875 1,0 0.53125,0 c -3.1776,0.286402 -6.563592,0.868918 -8.0625,2.03125 -6.225586,1.03063 -12.0625,3.018087 -12.0625,6.84375 l 0,1 0.96875,0 2.1875,0 1,0 0,-0.8125 c 0.01882,-0.0189 0.03323,-0.06666 0.0625,-0.09375 1.606987,-1.609074 9.554135,-3.867377 22.21875,-3.875 l 0,-45.28125 -1.1875,0 -1,0 z"
         style="fill:#4c59c6;fill-opacity:1;fill-rule:evenodd;stroke:#000000;stroke-width:0.35433072;stroke-miterlimit:4;stroke-opacity:1;stroke-dasharray:none"
         inkscape:connector-curvature="0" /><path
         id="path3819"
         d="m 109.78125,52.65625 c -9.56806,0.0073 -17.3125,1.64127 -17.3125,3.6875 l 0,6.125 c 4.927313,-1.720285 14.7934,-1.843134 17.3125,-1.84375 l 0,-7.96875 z"
         style="fill:#4c59c6;fill-opacity:1;fill-rule:evenodd;stroke:#000000;stroke-width:0.35433072;stroke-miterlimit:4;stroke-opacity:1;stroke-dasharray:none"
         inkscape:connector-curvature="0" /><path
         id="path3817"
         d="m 109.78125,63.21875 c -9.55711,0.0025 -15.366364,1.10016 -17.3125,1.9375 l 0,4.625 0,2.21875 c 4.684869,-1.448734 13.88822,-1.59375 17.3125,-1.59375 l 0,-7.1875 z"
         style="fill:#4c59c6;fill-opacity:1;fill-rule:evenodd;stroke:#000000;stroke-width:0.35433072;stroke-miterlimit:4;stroke-opacity:1;stroke-dasharray:none"
         inkscape:connector-curvature="0" /><path
         id="path3815"
         d="m 109.78125,73 c -9.53698,0 -15.299323,0.937109 -17.3125,1.65625 l 0,2.09375 0,4.78125 c 4.434006,-1.172785 12.98731,-1.34375 17.28125,-1.34375 0.009,0 0.0226,-10e-7 0.0312,0 l 0,-7.1875 z"
         style="fill:#4c59c6;fill-opacity:1;fill-rule:evenodd;stroke:#000000;stroke-width:0.35433072;stroke-miterlimit:4;stroke-opacity:1;stroke-dasharray:none"
         inkscape:connector-curvature="0" /><path
         id="path3813"
         d="m 109.75,82.78125 c -9.39273,0 -15.174,0.754222 -17.28125,1.34375 l 0,6.0625 0,0.84375 c 4.151785,-0.888473 12.0404,-1.0625 17.25,-1.0625 0.0189,0 0.0436,-4e-6 0.0625,0 l 0,-7.1875 c -0.0109,-2e-6 -0.0203,0 -0.0312,0 z"
         style="fill:#4c59c6;fill-opacity:1;fill-rule:evenodd;stroke:#000000;stroke-width:0.35433072;stroke-miterlimit:4;stroke-opacity:1;stroke-dasharray:none"
         inkscape:connector-curvature="0" /><path
         id="path3811"
         d="m 109.71875,92.5625 c -8.70077,0 -14.893977,0.529523 -17.25,1.03125 l 0,0.53125 0,3.03125 0,3.34375 c 4.101612,-0.631334 12.03633,-0.75 17.21875,-0.75 0.0282,0 0.0654,-8e-6 0.0937,0 l 0,-7.1875 c -0.0217,-7e-6 -0.0408,0 -0.0625,0 z"
         style="fill:#4c59c6;fill-opacity:1;fill-rule:evenodd;stroke:#000000;stroke-width:0.35433072;stroke-miterlimit:4;stroke-opacity:1;stroke-dasharray:none"
         inkscape:connector-curvature="0" /><path
         id="path374"
         d="m 109.6875,102.34375 c -8.57115,0 -14.735205,0.36336 -17.21875,0.71875 l 0,1.0625 0,7.3125 0,0.1875 c 0.131703,-0.0398 0.30349,-0.0644 0.5,-0.0937 0.173514,-0.0356 0.415624,-0.0644 0.71875,-0.0937 0.443192,-0.0482 0.84375,-0.0937 0.84375,-0.0937 2.757014,-0.22089 8.31928,-0.37403 15.25,-0.375 l 0,-8.625 c -0.0339,-1e-5 -0.0598,0 -0.0937,0 z"
         style="fill:#4c59c6;fill-opacity:1;fill-rule:evenodd;stroke:#000000;stroke-width:0.35433072;stroke-miterlimit:4;stroke-opacity:1;stroke-dasharray:none"
         inkscape:connector-curvature="0" /></g></g></svg>