  0
SECTION
  2
HEADER
  9
$ACADVER
  1
AC1009
  9
$EXTMIN
 10
0.0
 20
0.0
 30
0.0
  9
$EXTMAX
 10
1000.0
 20
1000.0
 30
0.0
  9
$FILLMODE
 70
 0
  9
$SPLFRAME
 70
 1
  0
ENDSEC
  0
SECTION
  2
TABLES
  0
TABLE
  2
LAYER
 70
1
  0
LAYER
  2
0
 70
     0
 62
     7
  6
CONTINUOUS
  0
ENDTAB
  0
ENDSEC
  0
SECTION
  2
ENTITIES
  0
LINE
  8
0
 62
     173
 10
13.3918
 20
610.672
 30
0.0
 11
13.3918
 21
410.796
 31
0.0
  0
LINE
  8
0
 62
     173
 10
13.3918
 20
410.796
 30
0.0
 11
19.6536
 21
409.864
 31
0.0
  0
LINE
  8
0
 62
     173
 10
19.6536
 20
409.864
 30
0.0
 11
25.5681
 21
408.485
 31
0.0
  0
LINE
  8
0
 62
     173
 10
25.5681
 20
408.485
 30
0.0
 11
30.9838
 21
406.64
 31
0.0
  0
LINE
  8
0
 62
     173
 10
30.9838
 20
406.64
 30
0.0
 11
35.7519
 21
404.29
 31
0.0
  0
LINE
  8
0
 62
     173
 10
35.7519
 20
404.29
 30
0.0
 11
39.7207
 21
401.412
 31
0.0
  0
LINE
  8
0
 62
     173
 10
39.7207
 20
401.412
 30
0.0
 11
42.7411
 21
397.972
 31
0.0
  0
LINE
  8
0
 62
     173
 10
42.7411
 20
397.972
 30
0.0
 11
44.6634
 21
393.947
 31
0.0
  0
LINE
  8
0
 62
     173
 10
44.6634
 20
393.947
 30
0.0
 11
45.339
 21
389.304
 31
0.0
  0
LINE
  8
0
 62
     173
 10
45.339
 20
389.304
 30
0.0
 11
45.339
 21
383.815
 31
0.0
  0
LINE
  8
0
 62
     173
 10
45.339
 20
383.815
 30
0.0
 11
36.6818
 21
383.815
 31
0.0
  0
LINE
  8
0
 62
     173
 10
36.6818
 20
383.815
 30
0.0
 11
43.4414
 21
383.134
 31
0.0
  0
LINE
  8
0
 62
     173
 10
43.4414
 20
383.134
 30
0.0
 11
50.1703
 21
382.274
 31
0.0
  0
LINE
  8
0
 62
     173
 10
50.1703
 20
382.274
 30
0.0
 11
56.7323
 21
381.219
 31
0.0
  0
LINE
  8
0
 62
     173
 10
56.7323
 20
381.219
 30
0.0
 11
62.9874
 21
379.945
 31
0.0
  0
LINE
  8
0
 62
     173
 10
62.9874
 20
379.945
 30
0.0
 11
68.7987
 21
378.442
 31
0.0
  0
LINE
  8
0
 62
     173
 10
68.7987
 20
378.442
 30
0.0
 11
74.0269
 21
376.686
 31
0.0
  0
LINE
  8
0
 62
     173
 10
74.0269
 20
376.686
 30
0.0
 11
78.5343
 21
374.661
 31
0.0
  0
LINE
  8
0
 62
     173
 10
78.5343
 20
374.661
 30
0.0
 11
82.1835
 21
372.35
 31
0.0
  0
LINE
  8
0
 62
     173
 10
82.1835
 20
372.35
 30
0.0
 11
88.7388
 21
371.196
 31
0.0
  0
LINE
  8
0
 62
     173
 10
88.7388
 20
371.196
 30
0.0
 11
95.1989
 21
369.909
 31
0.0
  0
LINE
  8
0
 62
     173
 10
95.1989
 20
369.909
 30
0.0
 11
101.517
 21
368.476
 31
0.0
  0
LINE
  8
0
 62
     173
 10
101.517
 20
368.476
 30
0.0
 11
107.651
 21
366.899
 31
0.0
  0
LINE
  8
0
 62
     173
 10
107.651
 20
366.899
 30
0.0
 11
113.552
 21
365.164
 31
0.0
  0
LINE
  8
0
 62
     173
 10
113.552
 20
365.164
 30
0.0
 11
119.175
 21
363.269
 31
0.0
  0
LINE
  8
0
 62
     173
 10
119.175
 20
363.269
 30
0.0
 11
124.478
 21
361.202
 31
0.0
  0
LINE
  8
0
 62
     173
 10
124.478
 20
361.202
 30
0.0
 11
129.414
 21
358.958
 31
0.0
  0
LINE
  8
0
 62
     173
 10
129.414
 20
358.958
 30
0.0
 11
133.938
 21
356.528
 31
0.0
  0
LINE
  8
0
 62
     173
 10
133.938
 20
356.528
 30
0.0
 11
138.006
 21
353.907
 31
0.0
  0
LINE
  8
0
 62
     173
 10
138.006
 20
353.907
 30
0.0
 11
141.571
 21
351.087
 31
0.0
  0
LINE
  8
0
 62
     173
 10
141.571
 20
351.087
 30
0.0
 11
144.589
 21
348.059
 31
0.0
  0
LINE
  8
0
 62
     173
 10
144.589
 20
348.059
 30
0.0
 11
147.016
 21
344.819
 31
0.0
  0
LINE
  8
0
 62
     173
 10
147.016
 20
344.819
 30
0.0
 11
148.805
 21
341.358
 31
0.0
  0
LINE
  8
0
 62
     173
 10
148.805
 20
341.358
 30
0.0
 11
149.911
 21
337.668
 31
0.0
  0
LINE
  8
0
 62
     173
 10
149.911
 20
337.668
 30
0.0
 11
150.29
 21
333.742
 31
0.0
  0
LINE
  8
0
 62
     173
 10
150.29
 20
333.742
 30
0.0
 11
150.29
 21
328.09
 31
0.0
  0
LINE
  8
0
 62
     173
 10
150.29
 20
328.09
 30
0.0
 11
126.837
 21
328.09
 31
0.0
  0
LINE
  8
0
 62
     173
 10
126.837
 20
328.09
 30
0.0
 11
126.837
 21
332.662
 31
0.0
  0
LINE
  8
0
 62
     173
 10
126.837
 20
332.662
 30
0.0
 11
126.676
 21
332.916
 31
0.0
  0
LINE
  8
0
 62
     173
 10
126.676
 20
332.916
 30
0.0
 11
126.478
 21
333.185
 31
0.0
  0
LINE
  8
0
 62
     173
 10
126.478
 20
333.185
 30
0.0
 11
124.36
 21
334.929
 31
0.0
  0
LINE
  8
0
 62
     173
 10
124.36
 20
334.929
 30
0.0
 11
121.416
 21
336.735
 31
0.0
  0
LINE
  8
0
 62
     173
 10
121.416
 20
336.735
 30
0.0
 11
117.661
 21
338.577
 31
0.0
  0
LINE
  8
0
 62
     173
 10
117.661
 20
338.577
 30
0.0
 11
113.107
 21
340.433
 31
0.0
  0
LINE
  8
0
 62
     173
 10
113.107
 20
340.433
 30
0.0
 11
107.768
 21
342.28
 31
0.0
  0
LINE
  8
0
 62
     173
 10
107.768
 20
342.28
 30
0.0
 11
101.656
 21
344.092
 31
0.0
  0
LINE
  8
0
 62
     173
 10
101.656
 20
344.092
 30
0.0
 11
94.7857
 21
345.846
 31
0.0
  0
LINE
  8
0
 62
     173
 10
94.7857
 20
345.846
 30
0.0
 11
87.1707
 21
347.518
 31
0.0
  0
LINE
  8
0
 62
     173
 10
87.1707
 20
347.518
 30
0.0
 11
78.824
 21
349.083
 31
0.0
  0
LINE
  8
0
 62
     173
 10
78.824
 20
349.083
 30
0.0
 11
69.759
 21
350.519
 31
0.0
  0
LINE
  8
0
 62
     173
 10
69.759
 20
350.519
 30
0.0
 11
59.9902
 21
351.802
 31
0.0
  0
LINE
  8
0
 62
     173
 10
59.9902
 20
351.802
 30
0.0
 11
49.5293
 21
352.908
 31
0.0
  0
LINE
  8
0
 62
     173
 10
49.5293
 20
352.908
 30
0.0
 11
38.3907
 21
353.811
 31
0.0
  0
LINE
  8
0
 62
     173
 10
38.3907
 20
353.811
 30
0.0
 11
26.5879
 21
354.489
 31
0.0
  0
LINE
  8
0
 62
     173
 10
26.5879
 20
354.489
 30
0.0
 11
14.1345
 21
354.916
 31
0.0
  0
LINE
  8
0
 62
     173
 10
14.1345
 20
354.916
 30
0.0
 11
1.04455
 21
355.071
 31
0.0
  0
LINE
  8
0
 62
     173
 10
1.04455
 20
355.071
 30
0.0
 11
1.04455
 21
610.672
 31
0.0
  0
LINE
  8
0
 62
     173
 10
1.04455
 20
610.672
 30
0.0
 11
13.3918
 21
610.672
 31
0.0
  0
LINE
  8
0
 62
     0
 10
13.3918
 20
610.672
 30
0.0
 11
13.3918
 21
410.796
 31
0.0
  0
LINE
  8
0
 62
     0
 10
13.3918
 20
410.796
 30
0.0
 11
19.6536
 21
409.864
 31
0.0
  0
LINE
  8
0
 62
     0
 10
19.6536
 20
409.864
 30
0.0
 11
25.5681
 21
408.485
 31
0.0
  0
LINE
  8
0
 62
     0
 10
25.5681
 20
408.485
 30
0.0
 11
30.9838
 21
406.64
 31
0.0
  0
LINE
  8
0
 62
     0
 10
30.9838
 20
406.64
 30
0.0
 11
35.7519
 21
404.29
 31
0.0
  0
LINE
  8
0
 62
     0
 10
35.7519
 20
404.29
 30
0.0
 11
39.7207
 21
401.412
 31
0.0
  0
LINE
  8
0
 62
     0
 10
39.7207
 20
401.412
 30
0.0
 11
42.7411
 21
397.972
 31
0.0
  0
LINE
  8
0
 62
     0
 10
42.7411
 20
397.972
 30
0.0
 11
44.6634
 21
393.947
 31
0.0
  0
LINE
  8
0
 62
     0
 10
44.6634
 20
393.947
 30
0.0
 11
45.339
 21
389.304
 31
0.0
  0
LINE
  8
0
 62
     0
 10
45.339
 20
389.304
 30
0.0
 11
45.339
 21
383.815
 31
0.0
  0
LINE
  8
0
 62
     0
 10
45.339
 20
383.815
 30
0.0
 11
36.6818
 21
383.815
 31
0.0
  0
LINE
  8
0
 62
     0
 10
36.6818
 20
383.815
 30
0.0
 11
43.4414
 21
383.134
 31
0.0
  0
LINE
  8
0
 62
     0
 10
43.4414
 20
383.134
 30
0.0
 11
50.1703
 21
382.274
 31
0.0
  0
LINE
  8
0
 62
     0
 10
50.1703
 20
382.274
 30
0.0
 11
56.7323
 21
381.219
 31
0.0
  0
LINE
  8
0
 62
     0
 10
56.7323
 20
381.219
 30
0.0
 11
62.9874
 21
379.945
 31
0.0
  0
LINE
  8
0
 62
     0
 10
62.9874
 20
379.945
 30
0.0
 11
68.7987
 21
378.442
 31
0.0
  0
LINE
  8
0
 62
     0
 10
68.7987
 20
378.442
 30
0.0
 11
74.0269
 21
376.686
 31
0.0
  0
LINE
  8
0
 62
     0
 10
74.0269
 20
376.686
 30
0.0
 11
78.5343
 21
374.661
 31
0.0
  0
LINE
  8
0
 62
     0
 10
78.5343
 20
374.661
 30
0.0
 11
82.1835
 21
372.35
 31
0.0
  0
LINE
  8
0
 62
     0
 10
82.1835
 20
372.35
 30
0.0
 11
88.7388
 21
371.196
 31
0.0
  0
LINE
  8
0
 62
     0
 10
88.7388
 20
371.196
 30
0.0
 11
95.1989
 21
369.909
 31
0.0
  0
LINE
  8
0
 62
     0
 10
95.1989
 20
369.909
 30
0.0
 11
101.517
 21
368.476
 31
0.0
  0
LINE
  8
0
 62
     0
 10
101.517
 20
368.476
 30
0.0
 11
107.651
 21
366.899
 31
0.0
  0
LINE
  8
0
 62
     0
 10
107.651
 20
366.899
 30
0.0
 11
113.552
 21
365.164
 31
0.0
  0
LINE
  8
0
 62
     0
 10
113.552
 20
365.164
 30
0.0
 11
119.175
 21
363.269
 31
0.0
  0
LINE
  8
0
 62
     0
 10
119.175
 20
363.269
 30
0.0
 11
124.478
 21
361.202
 31
0.0
  0
LINE
  8
0
 62
     0
 10
124.478
 20
361.202
 30
0.0
 11
129.414
 21
358.958
 31
0.0
  0
LINE
  8
0
 62
     0
 10
129.414
 20
358.958
 30
0.0
 11
133.938
 21
356.528
 31
0.0
  0
LINE
  8
0
 62
     0
 10
133.938
 20
356.528
 30
0.0
 11
138.006
 21
353.907
 31
0.0
  0
LINE
  8
0
 62
     0
 10
138.006
 20
353.907
 30
0.0
 11
141.571
 21
351.087
 31
0.0
  0
LINE
  8
0
 62
     0
 10
141.571
 20
351.087
 30
0.0
 11
144.589
 21
348.059
 31
0.0
  0
LINE
  8
0
 62
     0
 10
144.589
 20
348.059
 30
0.0
 11
147.016
 21
344.819
 31
0.0
  0
LINE
  8
0
 62
     0
 10
147.016
 20
344.819
 30
0.0
 11
148.805
 21
341.358
 31
0.0
  0
LINE
  8
0
 62
     0
 10
148.805
 20
341.358
 30
0.0
 11
149.911
 21
337.668
 31
0.0
  0
LINE
  8
0
 62
     0
 10
149.911
 20
337.668
 30
0.0
 11
150.29
 21
333.742
 31
0.0
  0
LINE
  8
0
 62
     0
 10
150.29
 20
333.742
 30
0.0
 11
150.29
 21
328.09
 31
0.0
  0
LINE
  8
0
 62
     0
 10
150.29
 20
328.09
 30
0.0
 11
126.837
 21
328.09
 31
0.0
  0
LINE
  8
0
 62
     0
 10
126.837
 20
328.09
 30
0.0
 11
126.837
 21
332.662
 31
0.0
  0
LINE
  8
0
 62
     0
 10
126.837
 20
332.662
 30
0.0
 11
126.676
 21
332.916
 31
0.0
  0
LINE
  8
0
 62
     0
 10
126.676
 20
332.916
 30
0.0
 11
126.478
 21
333.185
 31
0.0
  0
LINE
  8
0
 62
     0
 10
126.478
 20
333.185
 30
0.0
 11
124.36
 21
334.929
 31
0.0
  0
LINE
  8
0
 62
     0
 10
124.36
 20
334.929
 30
0.0
 11
121.416
 21
336.735
 31
0.0
  0
LINE
  8
0
 62
     0
 10
121.416
 20
336.735
 30
0.0
 11
117.661
 21
338.577
 31
0.0
  0
LINE
  8
0
 62
     0
 10
117.661
 20
338.577
 30
0.0
 11
113.107
 21
340.433
 31
0.0
  0
LINE
  8
0
 62
     0
 10
113.107
 20
340.433
 30
0.0
 11
107.768
 21
342.28
 31
0.0
  0
LINE
  8
0
 62
     0
 10
107.768
 20
342.28
 30
0.0
 11
101.656
 21
344.092
 31
0.0
  0
LINE
  8
0
 62
     0
 10
101.656
 20
344.092
 30
0.0
 11
94.7857
 21
345.846
 31
0.0
  0
LINE
  8
0
 62
     0
 10
94.7857
 20
345.846
 30
0.0
 11
87.1707
 21
347.518
 31
0.0
  0
LINE
  8
0
 62
     0
 10
87.1707
 20
347.518
 30
0.0
 11
78.824
 21
349.083
 31
0.0
  0
LINE
  8
0
 62
     0
 10
78.824
 20
349.083
 30
0.0
 11
69.759
 21
350.519
 31
0.0
  0
LINE
  8
0
 62
     0
 10
69.759
 20
350.519
 30
0.0
 11
59.9902
 21
351.802
 31
0.0
  0
LINE
  8
0
 62
     0
 10
59.9902
 20
351.802
 30
0.0
 11
49.5293
 21
352.908
 31
0.0
  0
LINE
  8
0
 62
     0
 10
49.5293
 20
352.908
 30
0.0
 11
38.3907
 21
353.811
 31
0.0
  0
LINE
  8
0
 62
     0
 10
38.3907
 20
353.811
 30
0.0
 11
26.5879
 21
354.489
 31
0.0
  0
LINE
  8
0
 62
     0
 10
26.5879
 20
354.489
 30
0.0
 11
14.1345
 21
354.916
 31
0.0
  0
LINE
  8
0
 62
     0
 10
14.1345
 20
354.916
 30
0.0
 11
1.04455
 21
355.071
 31
0.0
  0
LINE
  8
0
 62
     0
 10
1.04455
 20
355.071
 30
0.0
 11
1.04455
 21
610.672
 31
0.0
  0
LINE
  8
0
 62
     0
 10
1.04455
 20
610.672
 30
0.0
 11
13.3918
 21
610.672
 31
0.0
  0
LINE
  8
0
 62
     173
 10
1.04455
 20
334.264
 30
0.0
 11
11.045
 21
334.148
 31
0.0
  0
LINE
  8
0
 62
     173
 10
11.045
 20
334.148
 30
0.0
 11
20.7546
 21
333.828
 31
0.0
  0
LINE
  8
0
 62
     173
 10
20.7546
 20
333.828
 30
0.0
 11
30.1239
 21
333.313
 31
0.0
  0
LINE
  8
0
 62
     173
 10
30.1239
 20
333.313
 30
0.0
 11
39.1061
 21
332.613
 31
0.0
  0
LINE
  8
0
 62
     173
 10
39.1061
 20
332.613
 30
0.0
 11
47.6511
 21
331.739
 31
0.0
  0
LINE
  8
0
 62
     173
 10
47.6511
 20
331.739
 30
0.0
 11
55.7086
 21
330.7
 31
0.0
  0
LINE
  8
0
 62
     173
 10
55.7086
 20
330.7
 30
0.0
 11
63.2312
 21
329.507
 31
0.0
  0
LINE
  8
0
 62
     173
 10
63.2312
 20
329.507
 30
0.0
 11
70.1696
 21
328.169
 31
0.0
  0
LINE
  8
0
 62
     173
 10
70.1696
 20
328.169
 30
0.0
 11
76.4755
 21
326.695
 31
0.0
  0
LINE
  8
0
 62
     173
 10
76.4755
 20
326.695
 30
0.0
 11
82.0981
 21
325.098
 31
0.0
  0
LINE
  8
0
 62
     173
 10
82.0981
 20
325.098
 30
0.0
 11
86.9915
 21
323.387
 31
0.0
  0
LINE
  8
0
 62
     173
 10
86.9915
 20
323.387
 30
0.0
 11
91.1035
 21
321.571
 31
0.0
  0
LINE
  8
0
 62
     173
 10
91.1035
 20
321.571
 30
0.0
 11
94.3875
 21
319.659
 31
0.0
  0
LINE
  8
0
 62
     173
 10
94.3875
 20
319.659
 30
0.0
 11
96.7934
 21
317.664
 31
0.0
  0
LINE
  8
0
 62
     173
 10
96.7934
 20
317.664
 30
0.0
 11
98.2733
 21
315.593
 31
0.0
  0
LINE
  8
0
 62
     173
 10
98.2733
 20
315.593
 30
0.0
 11
98.7778
 21
313.457
 31
0.0
  0
LINE
  8
0
 62
     173
 10
98.7778
 20
313.457
 30
0.0
 11
98.7778
 21
278.864
 31
0.0
  0
LINE
  8
0
 62
     173
 10
98.7778
 20
278.864
 30
0.0
 11
93.2533
 21
280.585
 31
0.0
  0
LINE
  8
0
 62
     173
 10
93.2533
 20
280.585
 30
0.0
 11
87.1774
 21
282.105
 31
0.0
  0
LINE
  8
0
 62
     173
 10
87.1774
 20
282.105
 30
0.0
 11
80.651
 21
283.439
 31
0.0
  0
LINE
  8
0
 62
     173
 10
80.651
 20
283.439
 30
0.0
 11
73.7761
 21
284.596
 31
0.0
  0
LINE
  8
0
 62
     173
 10
73.7761
 20
284.596
 30
0.0
 11
66.6531
 21
285.593
 31
0.0
  0
LINE
  8
0
 62
     173
 10
66.6531
 20
285.593
 30
0.0
 11
59.3852
 21
286.438
 31
0.0
  0
LINE
  8
0
 62
     173
 10
59.3852
 20
286.438
 30
0.0
 11
52.0718
 21
287.143
 31
0.0
  0
LINE
  8
0
 62
     173
 10
52.0718
 20
287.143
 30
0.0
 11
44.8179
 21
287.723
 31
0.0
  0
LINE
  8
0
 62
     173
 10
44.8179
 20
287.723
 30
0.0
 11
37.7211
 21
288.189
 31
0.0
  0
LINE
  8
0
 62
     173
 10
37.7211
 20
288.189
 30
0.0
 11
30.886
 21
288.553
 31
0.0
  0
LINE
  8
0
 62
     173
 10
30.886
 20
288.553
 30
0.0
 11
24.4133
 21
288.829
 31
0.0
  0
LINE
  8
0
 62
     173
 10
24.4133
 20
288.829
 30
0.0
 11
18.4051
 21
289.026
 31
0.0
  0
LINE
  8
0
 62
     173
 10
18.4051
 20
289.026
 30
0.0
 11
12.9618
 21
289.158
 31
0.0
  0
LINE
  8
0
 62
     173
 10
12.9618
 20
289.158
 30
0.0
 11
8.18691
 21
289.237
 31
0.0
  0
LINE
  8
0
 62
     173
 10
8.18691
 20
289.237
 30
0.0
 11
4.17961
 21
289.275
 31
0.0
  0
LINE
  8
0
 62
     173
 10
4.17961
 20
289.275
 30
0.0
 11
1.04455
 21
289.285
 31
0.0
  0
LINE
  8
0
 62
     173
 10
1.04455
 20
289.285
 30
0.0
 11
1.04455
 21
334.264
 31
0.0
  0
LINE
  8
0
 62
     0
 10
1.04455
 20
334.264
 30
0.0
 11
11.045
 21
334.148
 31
0.0
  0
LINE
  8
0
 62
     0
 10
11.045
 20
334.148
 30
0.0
 11
20.7546
 21
333.828
 31
0.0
  0
LINE
  8
0
 62
     0
 10
20.7546
 20
333.828
 30
0.0
 11
30.1239
 21
333.313
 31
0.0
  0
LINE
  8
0
 62
     0
 10
30.1239
 20
333.313
 30
0.0
 11
39.1061
 21
332.613
 31
0.0
  0
LINE
  8
0
 62
     0
 10
39.1061
 20
332.613
 30
0.0
 11
47.6511
 21
331.739
 31
0.0
  0
LINE
  8
0
 62
     0
 10
47.6511
 20
331.739
 30
0.0
 11
55.7086
 21
330.7
 31
0.0
  0
LINE
  8
0
 62
     0
 10
55.7086
 20
330.7
 30
0.0
 11
63.2312
 21
329.507
 31
0.0
  0
LINE
  8
0
 62
     0
 10
63.2312
 20
329.507
 30
0.0
 11
70.1696
 21
328.169
 31
0.0
  0
LINE
  8
0
 62
     0
 10
70.1696
 20
328.169
 30
0.0
 11
76.4755
 21
326.695
 31
0.0
  0
LINE
  8
0
 62
     0
 10
76.4755
 20
326.695
 30
0.0
 11
82.0981
 21
325.098
 31
0.0
  0
LINE
  8
0
 62
     0
 10
82.0981
 20
325.098
 30
0.0
 11
86.9915
 21
323.387
 31
0.0
  0
LINE
  8
0
 62
     0
 10
86.9915
 20
323.387
 30
0.0
 11
91.1035
 21
321.571
 31
0.0
  0
LINE
  8
0
 62
     0
 10
91.1035
 20
321.571
 30
0.0
 11
94.3875
 21
319.659
 31
0.0
  0
LINE
  8
0
 62
     0
 10
94.3875
 20
319.659
 30
0.0
 11
96.7934
 21
317.664
 31
0.0
  0
LINE
  8
0
 62
     0
 10
96.7934
 20
317.664
 30
0.0
 11
98.2733
 21
315.593
 31
0.0
  0
LINE
  8
0
 62
     0
 10
98.2733
 20
315.593
 30
0.0
 11
98.7778
 21
313.457
 31
0.0
  0
LINE
  8
0
 62
     0
 10
98.7778
 20
313.457
 30
0.0
 11
98.7778
 21
278.864
 31
0.0
  0
LINE
  8
0
 62
     0
 10
98.7778
 20
278.864
 30
0.0
 11
93.2533
 21
280.585
 31
0.0
  0
LINE
  8
0
 62
     0
 10
93.2533
 20
280.585
 30
0.0
 11
87.1774
 21
282.105
 31
0.0
  0
LINE
  8
0
 62
     0
 10
87.1774
 20
282.105
 30
0.0
 11
80.651
 21
283.439
 31
0.0
  0
LINE
  8
0
 62
     0
 10
80.651
 20
283.439
 30
0.0
 11
73.7761
 21
284.596
 31
0.0
  0
LINE
  8
0
 62
     0
 10
73.7761
 20
284.596
 30
0.0
 11
66.6531
 21
285.593
 31
0.0
  0
LINE
  8
0
 62
     0
 10
66.6531
 20
285.593
 30
0.0
 11
59.3852
 21
286.438
 31
0.0
  0
LINE
  8
0
 62
     0
 10
59.3852
 20
286.438
 30
0.0
 11
52.0718
 21
287.143
 31
0.0
  0
LINE
  8
0
 62
     0
 10
52.0718
 20
287.143
 30
0.0
 11
44.8179
 21
287.723
 31
0.0
  0
LINE
  8
0
 62
     0
 10
44.8179
 20
287.723
 30
0.0
 11
37.7211
 21
288.189
 31
0.0
  0
LINE
  8
0
 62
     0
 10
37.7211
 20
288.189
 30
0.0
 11
30.886
 21
288.553
 31
0.0
  0
LINE
  8
0
 62
     0
 10
30.886
 20
288.553
 30
0.0
 11
24.4133
 21
288.829
 31
0.0
  0
LINE
  8
0
 62
     0
 10
24.4133
 20
288.829
 30
0.0
 11
18.4051
 21
289.026
 31
0.0
  0
LINE
  8
0
 62
     0
 10
18.4051
 20
289.026
 30
0.0
 11
12.9618
 21
289.158
 31
0.0
  0
LINE
  8
0
 62
     0
 10
12.9618
 20
289.158
 30
0.0
 11
8.18691
 21
289.237
 31
0.0
  0
LINE
  8
0
 62
     0
 10
8.18691
 20
289.237
 30
0.0
 11
4.17961
 21
289.275
 31
0.0
  0
LINE
  8
0
 62
     0
 10
4.17961
 20
289.275
 30
0.0
 11
1.04455
 21
289.285
 31
0.0
  0
LINE
  8
0
 62
     0
 10
1.04455
 20
289.285
 30
0.0
 11
1.04455
 21
334.264
 31
0.0
  0
LINE
  8
0
 62
     173
 10
1.04455
 20
274.651
 30
0.0
 11
20.2875
 21
274.367
 31
0.0
  0
LINE
  8
0
 62
     173
 10
20.2875
 20
274.367
 30
0.0
 11
37.5349
 21
273.593
 31
0.0
  0
LINE
  8
0
 62
     173
 10
37.5349
 20
273.593
 30
0.0
 11
52.783
 21
272.42
 31
0.0
  0
LINE
  8
0
 62
     173
 10
52.783
 20
272.42
 30
0.0
 11
66.0231
 21
270.938
 31
0.0
  0
LINE
  8
0
 62
     173
 10
66.0231
 20
270.938
 30
0.0
 11
77.2502
 21
269.236
 31
0.0
  0
LINE
  8
0
 62
     173
 10
77.2502
 20
269.236
 30
0.0
 11
86.4553
 21
267.403
 31
0.0
  0
LINE
  8
0
 62
     173
 10
86.4553
 20
267.403
 30
0.0
 11
93.6336
 21
265.532
 31
0.0
  0
LINE
  8
0
 62
     173
 10
93.6336
 20
265.532
 30
0.0
 11
98.7778
 21
263.708
 31
0.0
  0
LINE
  8
0
 62
     173
 10
98.7778
 20
263.708
 30
0.0
 11
98.7778
 21
225.065
 31
0.0
  0
LINE
  8
0
 62
     173
 10
98.7778
 20
225.065
 30
0.0
 11
93.5373
 21
226.516
 31
0.0
  0
LINE
  8
0
 62
     173
 10
93.5373
 20
226.516
 30
0.0
 11
87.7824
 21
227.803
 31
0.0
  0
LINE
  8
0
 62
     173
 10
87.7824
 20
227.803
 30
0.0
 11
81.6021
 21
228.938
 31
0.0
  0
LINE
  8
0
 62
     173
 10
81.6021
 20
228.938
 30
0.0
 11
75.0768
 21
229.927
 31
0.0
  0
LINE
  8
0
 62
     173
 10
75.0768
 20
229.927
 30
0.0
 11
68.2957
 21
230.784
 31
0.0
  0
LINE
  8
0
 62
     173
 10
68.2957
 20
230.784
 30
0.0
 11
61.3421
 21
231.516
 31
0.0
  0
LINE
  8
0
 62
     173
 10
61.3421
 20
231.516
 30
0.0
 11
54.3003
 21
232.132
 31
0.0
  0
LINE
  8
0
 62
     173
 10
54.3003
 20
232.132
 30
0.0
 11
47.2571
 21
232.643
 31
0.0
  0
LINE
  8
0
 62
     173
 10
47.2571
 20
232.643
 30
0.0
 11
40.2953
 21
233.058
 31
0.0
  0
LINE
  8
0
 62
     173
 10
40.2953
 20
233.058
 30
0.0
 11
33.5029
 21
233.387
 31
0.0
  0
LINE
  8
0
 62
     173
 10
33.5029
 20
233.387
 30
0.0
 11
26.9641
 21
233.639
 31
0.0
  0
LINE
  8
0
 62
     173
 10
26.9641
 20
233.639
 30
0.0
 11
20.7629
 21
233.824
 31
0.0
  0
LINE
  8
0
 62
     173
 10
20.7629
 20
233.824
 30
0.0
 11
14.9848
 21
233.952
 31
0.0
  0
LINE
  8
0
 62
     173
 10
14.9848
 20
233.952
 30
0.0
 11
9.71518
 21
234.031
 31
0.0
  0
LINE
  8
0
 62
     173
 10
9.71518
 20
234.031
 30
0.0
 11
5.04088
 21
234.071
 31
0.0
  0
LINE
  8
0
 62
     173
 10
5.04088
 20
234.071
 30
0.0
 11
1.04455
 21
234.082
 31
0.0
  0
LINE
  8
0
 62
     173
 10
1.04455
 20
234.082
 30
0.0
 11
1.04455
 21
274.651
 31
0.0
  0
LINE
  8
0
 62
     0
 10
1.04455
 20
274.651
 30
0.0
 11
20.2875
 21
274.367
 31
0.0
  0
LINE
  8
0
 62
     0
 10
20.2875
 20
274.367
 30
0.0
 11
37.5349
 21
273.593
 31
0.0
  0
LINE
  8
0
 62
     0
 10
37.5349
 20
273.593
 30
0.0
 11
52.783
 21
272.42
 31
0.0
  0
LINE
  8
0
 62
     0
 10
52.783
 20
272.42
 30
0.0
 11
66.0231
 21
270.938
 31
0.0
  0
LINE
  8
0
 62
     0
 10
66.0231
 20
270.938
 30
0.0
 11
77.2502
 21
269.236
 31
0.0
  0
LINE
  8
0
 62
     0
 10
77.2502
 20
269.236
 30
0.0
 11
86.4553
 21
267.403
 31
0.0
  0
LINE
  8
0
 62
     0
 10
86.4553
 20
267.403
 30
0.0
 11
93.6336
 21
265.532
 31
0.0
  0
LINE
  8
0
 62
     0
 10
93.6336
 20
265.532
 30
0.0
 11
98.7778
 21
263.708
 31
0.0
  0
LINE
  8
0
 62
     0
 10
98.7778
 20
263.708
 30
0.0
 11
98.7778
 21
225.065
 31
0.0
  0
LINE
  8
0
 62
     0
 10
98.7778
 20
225.065
 30
0.0
 11
93.5373
 21
226.516
 31
0.0
  0
LINE
  8
0
 62
     0
 10
93.5373
 20
226.516
 30
0.0
 11
87.7824
 21
227.803
 31
0.0
  0
LINE
  8
0
 62
     0
 10
87.7824
 20
227.803
 30
0.0
 11
81.6021
 21
228.938
 31
0.0
  0
LINE
  8
0
 62
     0
 10
81.6021
 20
228.938
 30
0.0
 11
75.0768
 21
229.927
 31
0.0
  0
LINE
  8
0
 62
     0
 10
75.0768
 20
229.927
 30
0.0
 11
68.2957
 21
230.784
 31
0.0
  0
LINE
  8
0
 62
     0
 10
68.2957
 20
230.784
 30
0.0
 11
61.3421
 21
231.516
 31
0.0
  0
LINE
  8
0
 62
     0
 10
61.3421
 20
231.516
 30
0.0
 11
54.3003
 21
232.132
 31
0.0
  0
LINE
  8
0
 62
     0
 10
54.3003
 20
232.132
 30
0.0
 11
47.2571
 21
232.643
 31
0.0
  0
LINE
  8
0
 62
     0
 10
47.2571
 20
232.643
 30
0.0
 11
40.2953
 21
233.058
 31
0.0
  0
LINE
  8
0
 62
     0
 10
40.2953
 20
233.058
 30
0.0
 11
33.5029
 21
233.387
 31
0.0
  0
LINE
  8
0
 62
     0
 10
33.5029
 20
233.387
 30
0.0
 11
26.9641
 21
233.639
 31
0.0
  0
LINE
  8
0
 62
     0
 10
26.9641
 20
233.639
 30
0.0
 11
20.7629
 21
233.824
 31
0.0
  0
LINE
  8
0
 62
     0
 10
20.7629
 20
233.824
 30
0.0
 11
14.9848
 21
233.952
 31
0.0
  0
LINE
  8
0
 62
     0
 10
14.9848
 20
233.952
 30
0.0
 11
9.71518
 21
234.031
 31
0.0
  0
LINE
  8
0
 62
     0
 10
9.71518
 20
234.031
 30
0.0
 11
5.04088
 21
234.071
 31
0.0
  0
LINE
  8
0
 62
     0
 10
5.04088
 20
234.071
 30
0.0
 11
1.04455
 21
234.082
 31
0.0
  0
LINE
  8
0
 62
     0
 10
1.04455
 20
234.082
 30
0.0
 11
1.04455
 21
274.651
 31
0.0
  0
LINE
  8
0
 62
     173
 10
1.04455
 20
219.414
 30
0.0
 11
20.2406
 21
219.18
 31
0.0
  0
LINE
  8
0
 62
     173
 10
20.2406
 20
219.18
 30
0.0
 11
37.4385
 21
218.525
 31
0.0
  0
LINE
  8
0
 62
     173
 10
37.4385
 20
218.525
 30
0.0
 11
52.6411
 21
217.527
 31
0.0
  0
LINE
  8
0
 62
     173
 10
52.6411
 20
217.527
 30
0.0
 11
65.8495
 21
216.262
 31
0.0
  0
LINE
  8
0
 62
     173
 10
65.8495
 20
216.262
 30
0.0
 11
77.0654
 21
214.809
 31
0.0
  0
LINE
  8
0
 62
     173
 10
77.0654
 20
214.809
 30
0.0
 11
86.2902
 21
213.242
 31
0.0
  0
LINE
  8
0
 62
     173
 10
86.2902
 20
213.242
 30
0.0
 11
93.5274
 21
211.638
 31
0.0
  0
LINE
  8
0
 62
     173
 10
93.5274
 20
211.638
 30
0.0
 11
98.7778
 21
210.072
 31
0.0
  0
LINE
  8
0
 62
     173
 10
98.7778
 20
210.072
 30
0.0
 11
98.7778
 21
171.267
 31
0.0
  0
LINE
  8
0
 62
     173
 10
98.7778
 20
171.267
 30
0.0
 11
88.3941
 21
173.492
 31
0.0
  0
LINE
  8
0
 62
     173
 10
88.3941
 20
173.492
 30
0.0
 11
76.3845
 21
175.244
 31
0.0
  0
LINE
  8
0
 62
     173
 10
76.3845
 20
175.244
 30
0.0
 11
63.3042
 21
176.573
 31
0.0
  0
LINE
  8
0
 62
     173
 10
63.3042
 20
176.573
 30
0.0
 11
49.7071
 21
177.538
 31
0.0
  0
LINE
  8
0
 62
     173
 10
49.7071
 20
177.538
 30
0.0
 11
36.1474
 21
178.193
 31
0.0
  0
LINE
  8
0
 62
     173
 10
36.1474
 20
178.193
 30
0.0
 11
23.18
 21
178.592
 31
0.0
  0
LINE
  8
0
 62
     173
 10
23.18
 20
178.592
 30
0.0
 11
11.3592
 21
178.791
 31
0.0
  0
LINE
  8
0
 62
     173
 10
11.3592
 20
178.791
 30
0.0
 11
1.24161
 21
178.845
 31
0.0
  0
LINE
  8
0
 62
     173
 10
1.24161
 20
178.845
 30
0.0
 11
1.04455
 21
178.845
 31
0.0
  0
LINE
  8
0
 62
     173
 10
1.04455
 20
178.845
 30
0.0
 11
1.04455
 21
219.414
 31
0.0
  0
LINE
  8
0
 62
     0
 10
1.04455
 20
219.414
 30
0.0
 11
20.2406
 21
219.18
 31
0.0
  0
LINE
  8
0
 62
     0
 10
20.2406
 20
219.18
 30
0.0
 11
37.4385
 21
218.525
 31
0.0
  0
LINE
  8
0
 62
     0
 10
37.4385
 20
218.525
 30
0.0
 11
52.6411
 21
217.527
 31
0.0
  0
LINE
  8
0
 62
     0
 10
52.6411
 20
217.527
 30
0.0
 11
65.8495
 21
216.262
 31
0.0
  0
LINE
  8
0
 62
     0
 10
65.8495
 20
216.262
 30
0.0
 11
77.0654
 21
214.809
 31
0.0
  0
LINE
  8
0
 62
     0
 10
77.0654
 20
214.809
 30
0.0
 11
86.2902
 21
213.242
 31
0.0
  0
LINE
  8
0
 62
     0
 10
86.2902
 20
213.242
 30
0.0
 11
93.5274
 21
211.638
 31
0.0
  0
LINE
  8
0
 62
     0
 10
93.5274
 20
211.638
 30
0.0
 11
98.7778
 21
210.072
 31
0.0
  0
LINE
  8
0
 62
     0
 10
98.7778
 20
210.072
 30
0.0
 11
98.7778
 21
171.267
 31
0.0
  0
LINE
  8
0
 62
     0
 10
98.7778
 20
171.267
 30
0.0
 11
88.3941
 21
173.492
 31
0.0
  0
LINE
  8
0
 62
     0
 10
88.3941
 20
173.492
 30
0.0
 11
76.3845
 21
175.244
 31
0.0
  0
LINE
  8
0
 62
     0
 10
76.3845
 20
175.244
 30
0.0
 11
63.3042
 21
176.573
 31
0.0
  0
LINE
  8
0
 62
     0
 10
63.3042
 20
176.573
 30
0.0
 11
49.7071
 21
177.538
 31
0.0
  0
LINE
  8
0
 62
     0
 10
49.7071
 20
177.538
 30
0.0
 11
36.1474
 21
178.193
 31
0.0
  0
LINE
  8
0
 62
     0
 10
36.1474
 20
178.193
 30
0.0
 11
23.18
 21
178.592
 31
0.0
  0
LINE
  8
0
 62
     0
 10
23.18
 20
178.592
 30
0.0
 11
11.3592
 21
178.791
 31
0.0
  0
LINE
  8
0
 62
     0
 10
11.3592
 20
178.791
 30
0.0
 11
1.24161
 21
178.845
 31
0.0
  0
LINE
  8
0
 62
     0
 10
1.24161
 20
178.845
 30
0.0
 11
1.04455
 21
178.845
 31
0.0
  0
LINE
  8
0
 62
     0
 10
1.04455
 20
178.845
 30
0.0
 11
1.04455
 21
219.414
 31
0.0
  0
LINE
  8
0
 62
     173
 10
1.24161
 20
164.211
 30
0.0
 11
20.1607
 21
164.024
 31
0.0
  0
LINE
  8
0
 62
     173
 10
20.1607
 20
164.024
 30
0.0
 11
37.1658
 21
163.497
 31
0.0
  0
LINE
  8
0
 62
     173
 10
37.1658
 20
163.497
 30
0.0
 11
52.2538
 21
162.694
 31
0.0
  0
LINE
  8
0
 62
     173
 10
52.2538
 20
162.694
 30
0.0
 11
65.4184
 21
161.674
 31
0.0
  0
LINE
  8
0
 62
     173
 10
65.4184
 20
161.674
 30
0.0
 11
76.6576
 21
160.499
 31
0.0
  0
LINE
  8
0
 62
     173
 10
76.6576
 20
160.499
 30
0.0
 11
85.9663
 21
159.226
 31
0.0
  0
LINE
  8
0
 62
     173
 10
85.9663
 20
159.226
 30
0.0
 11
93.3401
 21
157.918
 31
0.0
  0
LINE
  8
0
 62
     173
 10
93.3401
 20
157.918
 30
0.0
 11
98.7778
 21
156.633
 31
0.0
  0
LINE
  8
0
 62
     173
 10
98.7778
 20
156.633
 30
0.0
 11
98.7778
 21
117.665
 31
0.0
  0
LINE
  8
0
 62
     173
 10
98.7778
 20
117.665
 30
0.0
 11
89.0736
 21
119.36
 31
0.0
  0
LINE
  8
0
 62
     173
 10
89.0736
 20
119.36
 30
0.0
 11
77.8164
 21
120.713
 31
0.0
  0
LINE
  8
0
 62
     173
 10
77.8164
 20
120.713
 30
0.0
 11
65.4279
 21
121.758
 31
0.0
  0
LINE
  8
0
 62
     173
 10
65.4279
 20
121.758
 30
0.0
 11
52.3339
 21
122.532
 31
0.0
  0
LINE
  8
0
 62
     173
 10
52.3339
 20
122.532
 30
0.0
 11
38.9601
 21
123.073
 31
0.0
  0
LINE
  8
0
 62
     173
 10
38.9601
 20
123.073
 30
0.0
 11
25.7307
 21
123.413
 31
0.0
  0
LINE
  8
0
 62
     173
 10
25.7307
 20
123.413
 30
0.0
 11
13.0693
 21
123.591
 31
0.0
  0
LINE
  8
0
 62
     173
 10
13.0693
 20
123.591
 30
0.0
 11
1.40422
 21
123.642
 31
0.0
  0
LINE
  8
0
 62
     173
 10
1.40422
 20
123.642
 30
0.0
 11
1.04455
 21
123.642
 31
0.0
  0
LINE
  8
0
 62
     173
 10
1.04455
 20
123.642
 30
0.0
 11
1.04455
 21
164.211
 31
0.0
  0
LINE
  8
0
 62
     173
 10
1.04455
 20
164.211
 30
0.0
 11
1.24161
 21
164.211
 31
0.0
  0
LINE
  8
0
 62
     0
 10
1.24161
 20
164.211
 30
0.0
 11
20.1607
 21
164.024
 31
0.0
  0
LINE
  8
0
 62
     0
 10
20.1607
 20
164.024
 30
0.0
 11
37.1658
 21
163.497
 31
0.0
  0
LINE
  8
0
 62
     0
 10
37.1658
 20
163.497
 30
0.0
 11
52.2538
 21
162.694
 31
0.0
  0
LINE
  8
0
 62
     0
 10
52.2538
 20
162.694
 30
0.0
 11
65.4184
 21
161.674
 31
0.0
  0
LINE
  8
0
 62
     0
 10
65.4184
 20
161.674
 30
0.0
 11
76.6576
 21
160.499
 31
0.0
  0
LINE
  8
0
 62
     0
 10
76.6576
 20
160.499
 30
0.0
 11
85.9663
 21
159.226
 31
0.0
  0
LINE
  8
0
 62
     0
 10
85.9663
 20
159.226
 30
0.0
 11
93.3401
 21
157.918
 31
0.0
  0
LINE
  8
0
 62
     0
 10
93.3401
 20
157.918
 30
0.0
 11
98.7778
 21
156.633
 31
0.0
  0
LINE
  8
0
 62
     0
 10
98.7778
 20
156.633
 30
0.0
 11
98.7778
 21
117.665
 31
0.0
  0
LINE
  8
0
 62
     0
 10
98.7778
 20
117.665
 30
0.0
 11
89.0736
 21
119.363
 31
0.0
  0
LINE
  8
0
 62
     0
 10
89.0736
 20
119.363
 30
0.0
 11
77.8164
 21
120.716
 31
0.0
  0
LINE
  8
0
 62
     0
 10
77.8164
 20
120.716
 30
0.0
 11
65.4279
 21
121.762
 31
0.0
  0
LINE
  8
0
 62
     0
 10
65.4279
 20
121.762
 30
0.0
 11
52.3339
 21
122.535
 31
0.0
  0
LINE
  8
0
 62
     0
 10
52.3339
 20
122.535
 30
0.0
 11
38.9601
 21
123.074
 31
0.0
  0
LINE
  8
0
 62
     0
 10
38.9601
 20
123.074
 30
0.0
 11
25.7307
 21
123.414
 31
0.0
  0
LINE
  8
0
 62
     0
 10
25.7307
 20
123.414
 30
0.0
 11
13.0693
 21
123.591
 31
0.0
  0
LINE
  8
0
 62
     0
 10
13.0693
 20
123.591
 30
0.0
 11
1.40422
 21
123.642
 31
0.0
  0
LINE
  8
0
 62
     0
 10
1.40422
 20
123.642
 30
0.0
 11
1.04455
 21
123.642
 31
0.0
  0
LINE
  8
0
 62
     0
 10
1.04455
 20
123.642
 30
0.0
 11
1.04455
 21
164.211
 31
0.0
  0
LINE
  8
0
 62
     0
 10
1.04455
 20
164.211
 30
0.0
 11
1.24161
 21
164.211
 31
0.0
  0
LINE
  8
0
 62
     173
 10
1.40422
 20
109.008
 30
0.0
 11
19.1423
 21
108.876
 31
0.0
  0
LINE
  8
0
 62
     173
 10
19.1423
 20
108.876
 30
0.0
 11
35.4651
 21
108.5
 31
0.0
  0
LINE
  8
0
 62
     173
 10
35.4651
 20
108.5
 30
0.0
 11
50.286
 21
107.917
 31
0.0
  0
LINE
  8
0
 62
     173
 10
50.286
 20
107.917
 30
0.0
 11
63.5152
 21
107.166
 31
0.0
  0
LINE
  8
0
 62
     173
 10
63.5152
 20
107.166
 30
0.0
 11
75.0672
 21
106.281
 31
0.0
  0
LINE
  8
0
 62
     173
 10
75.0672
 20
106.281
 30
0.0
 11
84.8526
 21
105.3
 31
0.0
  0
LINE
  8
0
 62
     173
 10
84.8526
 20
105.3
 30
0.0
 11
92.7848
 21
104.26
 31
0.0
  0
LINE
  8
0
 62
     173
 10
92.7848
 20
104.26
 30
0.0
 11
98.7778
 21
103.195
 31
0.0
  0
LINE
  8
0
 62
     173
 10
98.7778
 20
103.195
 30
0.0
 11
98.7778
 21
64.1918
 31
0.0
  0
LINE
  8
0
 62
     173
 10
98.7778
 20
64.1918
 30
0.0
 11
89.1551
 21
65.4043
 31
0.0
  0
LINE
  8
0
 62
     173
 10
89.1551
 20
65.4043
 30
0.0
 11
77.9392
 21
66.3677
 31
0.0
  0
LINE
  8
0
 62
     173
 10
77.9392
 20
66.3677
 30
0.0
 11
65.5655
 21
67.1117
 31
0.0
  0
LINE
  8
0
 62
     173
 10
65.5655
 20
67.1117
 30
0.0
 11
52.4729
 21
67.6603
 31
0.0
  0
LINE
  8
0
 62
     173
 10
52.4729
 20
67.6603
 30
0.0
 11
39.0934
 21
68.0406
 31
0.0
  0
LINE
  8
0
 62
     173
 10
39.0934
 20
68.0406
 30
0.0
 11
25.8644
 21
68.2805
 31
0.0
  0
LINE
  8
0
 62
     173
 10
25.8644
 20
68.2805
 30
0.0
 11
13.2209
 21
68.4043
 31
0.0
  0
LINE
  8
0
 62
     173
 10
13.2209
 20
68.4043
 30
0.0
 11
1.60128
 21
68.4389
 31
0.0
  0
LINE
  8
0
 62
     173
 10
1.60128
 20
68.4389
 30
0.0
 11
1.04455
 21
68.4389
 31
0.0
  0
LINE
  8
0
 62
     173
 10
1.04455
 20
68.4389
 30
0.0
 11
1.04455
 21
109.008
 31
0.0
  0
LINE
  8
0
 62
     173
 10
1.04455
 20
109.008
 30
0.0
 11
1.40422
 21
109.008
 31
0.0
  0
LINE
  8
0
 62
     0
 10
1.40422
 20
109.008
 30
0.0
 11
19.1423
 21
108.876
 31
0.0
  0
LINE
  8
0
 62
     0
 10
19.1423
 20
108.876
 30
0.0
 11
35.4651
 21
108.5
 31
0.0
  0
LINE
  8
0
 62
     0
 10
35.4651
 20
108.5
 30
0.0
 11
50.286
 21
107.917
 31
0.0
  0
LINE
  8
0
 62
     0
 10
50.286
 20
107.917
 30
0.0
 11
63.5152
 21
107.166
 31
0.0
  0
LINE
  8
0
 62
     0
 10
63.5152
 20
107.166
 30
0.0
 11
75.0672
 21
106.281
 31
0.0
  0
LINE
  8
0
 62
     0
 10
75.0672
 20
106.281
 30
0.0
 11
84.8526
 21
105.3
 31
0.0
  0
LINE
  8
0
 62
     0
 10
84.8526
 20
105.3
 30
0.0
 11
92.7848
 21
104.26
 31
0.0
  0
LINE
  8
0
 62
     0
 10
92.7848
 20
104.26
 30
0.0
 11
98.7778
 21
103.195
 31
0.0
  0
LINE
  8
0
 62
     0
 10
98.7778
 20
103.195
 30
0.0
 11
98.7778
 21
64.1918
 31
0.0
  0
LINE
  8
0
 62
     0
 10
98.7778
 20
64.1918
 30
0.0
 11
89.1551
 21
65.4043
 31
0.0
  0
LINE
  8
0
 62
     0
 10
89.1551
 20
65.4043
 30
0.0
 11
77.9392
 21
66.3677
 31
0.0
  0
LINE
  8
0
 62
     0
 10
77.9392
 20
66.3677
 30
0.0
 11
65.5655
 21
67.1117
 31
0.0
  0
LINE
  8
0
 62
     0
 10
65.5655
 20
67.1117
 30
0.0
 11
52.4729
 21
67.6603
 31
0.0
  0
LINE
  8
0
 62
     0
 10
52.4729
 20
67.6603
 30
0.0
 11
39.0934
 21
68.0406
 31
0.0
  0
LINE
  8
0
 62
     0
 10
39.0934
 20
68.0406
 30
0.0
 11
25.8644
 21
68.2805
 31
0.0
  0
LINE
  8
0
 62
     0
 10
25.8644
 20
68.2805
 30
0.0
 11
13.2209
 21
68.4043
 31
0.0
  0
LINE
  8
0
 62
     0
 10
13.2209
 20
68.4043
 30
0.0
 11
1.60128
 21
68.4389
 31
0.0
  0
LINE
  8
0
 62
     0
 10
1.60128
 20
68.4389
 30
0.0
 11
1.04455
 21
68.4389
 31
0.0
  0
LINE
  8
0
 62
     0
 10
1.04455
 20
68.4389
 30
0.0
 11
1.04455
 21
109.008
 31
0.0
  0
LINE
  8
0
 62
     0
 10
1.04455
 20
109.008
 30
0.0
 11
1.40422
 21
109.008
 31
0.0
  0
LINE
  8
0
 62
     173
 10
1.60128
 20
53.8057
 30
0.0
 11
19.0872
 21
53.7132
 31
0.0
  0
LINE
  8
0
 62
     173
 10
19.0872
 20
53.7132
 30
0.0
 11
35.2158
 21
53.4529
 31
0.0
  0
LINE
  8
0
 62
     173
 10
35.2158
 20
53.4529
 30
0.0
 11
49.9043
 21
53.0475
 31
0.0
  0
LINE
  8
0
 62
     173
 10
49.9043
 20
53.0475
 30
0.0
 11
63.0661
 21
52.5254
 31
0.0
  0
LINE
  8
0
 62
     173
 10
63.0661
 20
52.5254
 30
0.0
 11
74.6181
 21
51.9095
 31
0.0
  0
LINE
  8
0
 62
     173
 10
74.6181
 20
51.9095
 30
0.0
 11
84.4765
 21
51.2258
 31
0.0
  0
LINE
  8
0
 62
     173
 10
84.4765
 20
51.2258
 30
0.0
 11
92.5587
 21
50.4994
 31
0.0
  0
LINE
  8
0
 62
     173
 10
92.5587
 20
50.4994
 30
0.0
 11
98.7778
 21
49.7554
 31
0.0
  0
LINE
  8
0
 62
     173
 10
98.7778
 20
49.7554
 30
0.0
 11
98.7778
 21
1.41111
 31
0.0
  0
LINE
  8
0
 62
     173
 10
98.7778
 20
1.41111
 30
0.0
 11
97.5071
 21
1.69361
 31
0.0
  0
LINE
  8
0
 62
     173
 10
97.5071
 20
1.69361
 30
0.0
 11
95.9693
 21
1.93339
 31
0.0
  0
LINE
  8
0
 62
     173
 10
95.9693
 20
1.93339
 30
0.0
 11
94.1959
 21
2.20762
 31
0.0
  0
LINE
  8
0
 62
     173
 10
94.1959
 20
2.20762
 30
0.0
 11
91.8849
 21
2.45566
 31
0.0
  0
LINE
  8
0
 62
     173
 10
91.8849
 20
2.45566
 30
0.0
 11
90.1001
 21
2.65961
 31
0.0
  0
LINE
  8
0
 62
     173
 10
90.1001
 20
2.65961
 30
0.0
 11
88.5885
 21
2.83738
 31
0.0
  0
LINE
  8
0
 62
     173
 10
88.5885
 20
2.83738
 30
0.0
 11
87.5411
 21
2.96416
 31
0.0
  0
LINE
  8
0
 62
     173
 10
87.5411
 20
2.96416
 30
0.0
 11
87.1499
 21
3.01239
 31
0.0
  0
LINE
  8
0
 62
     173
 10
87.1499
 20
3.01239
 30
0.0
 11
80.5836
 21
3.4575
 31
0.0
  0
LINE
  8
0
 62
     173
 10
80.5836
 20
3.4575
 30
0.0
 11
72.6295
 21
3.85988
 31
0.0
  0
LINE
  8
0
 62
     173
 10
72.6295
 20
3.85988
 30
0.0
 11
63.3815
 21
4.21679
 31
0.0
  0
LINE
  8
0
 62
     173
 10
63.3815
 20
4.21679
 30
0.0
 11
52.9332
 21
4.51997
 31
0.0
  0
LINE
  8
0
 62
     173
 10
52.9332
 20
4.51997
 30
0.0
 11
41.3812
 21
4.76663
 31
0.0
  0
LINE
  8
0
 62
     173
 10
41.3812
 20
4.76663
 30
0.0
 11
28.8189
 21
4.94993
 31
0.0
  0
LINE
  8
0
 62
     173
 10
28.8189
 20
4.94993
 30
0.0
 11
15.3417
 21
5.06293
 31
0.0
  0
LINE
  8
0
 62
     173
 10
15.3417
 20
5.06293
 30
0.0
 11
1.04455
 21
5.10148
 31
0.0
  0
LINE
  8
0
 62
     173
 10
1.04455
 20
5.10148
 30
0.0
 11
1.04455
 21
53.8057
 31
0.0
  0
LINE
  8
0
 62
     173
 10
1.04455
 20
53.8057
 30
0.0
 11
1.60128
 21
53.8057
 31
0.0
  0
LINE
  8
0
 62
     0
 10
1.60128
 20
53.8057
 30
0.0
 11
19.0872
 21
53.7132
 31
0.0
  0
LINE
  8
0
 62
     0
 10
19.0872
 20
53.7132
 30
0.0
 11
35.2158
 21
53.4529
 31
0.0
  0
LINE
  8
0
 62
     0
 10
35.2158
 20
53.4529
 30
0.0
 11
49.9043
 21
53.0475
 31
0.0
  0
LINE
  8
0
 62
     0
 10
49.9043
 20
53.0475
 30
0.0
 11
63.0661
 21
52.5254
 31
0.0
  0
LINE
  8
0
 62
     0
 10
63.0661
 20
52.5254
 30
0.0
 11
74.6181
 21
51.9095
 31
0.0
  0
LINE
  8
0
 62
     0
 10
74.6181
 20
51.9095
 30
0.0
 11
84.4765
 21
51.2258
 31
0.0
  0
LINE
  8
0
 62
     0
 10
84.4765
 20
51.2258
 30
0.0
 11
92.5587
 21
50.4994
 31
0.0
  0
LINE
  8
0
 62
     0
 10
92.5587
 20
50.4994
 30
0.0
 11
98.7778
 21
49.7554
 31
0.0
  0
LINE
  8
0
 62
     0
 10
98.7778
 20
49.7554
 30
0.0
 11
98.7778
 21
1.41111
 31
0.0
  0
LINE
  8
0
 62
     0
 10
98.7778
 20
1.41111
 30
0.0
 11
97.5071
 21
1.69361
 31
0.0
  0
LINE
  8
0
 62
     0
 10
97.5071
 20
1.69361
 30
0.0
 11
95.9693
 21
1.93339
 31
0.0
  0
LINE
  8
0
 62
     0
 10
95.9693
 20
1.93339
 30
0.0
 11
94.1959
 21
2.20762
 31
0.0
  0
LINE
  8
0
 62
     0
 10
94.1959
 20
2.20762
 30
0.0
 11
91.8849
 21
2.45566
 31
0.0
  0
LINE
  8
0
 62
     0
 10
91.8849
 20
2.45566
 30
0.0
 11
90.1001
 21
2.66237
 31
0.0
  0
LINE
  8
0
 62
     0
 10
90.1001
 20
2.66237
 30
0.0
 11
88.5885
 21
2.84014
 31
0.0
  0
LINE
  8
0
 62
     0
 10
88.5885
 20
2.84014
 30
0.0
 11
87.5411
 21
2.96554
 31
0.0
  0
LINE
  8
0
 62
     0
 10
87.5411
 20
2.96554
 30
0.0
 11
87.1499
 21
3.01239
 31
0.0
  0
LINE
  8
0
 62
     0
 10
87.1499
 20
3.01239
 30
0.0
 11
80.5836
 21
3.4575
 31
0.0
  0
LINE
  8
0
 62
     0
 10
80.5836
 20
3.4575
 30
0.0
 11
72.6295
 21
3.85988
 31
0.0
  0
LINE
  8
0
 62
     0
 10
72.6295
 20
3.85988
 30
0.0
 11
63.3815
 21
4.21679
 31
0.0
  0
LINE
  8
0
 62
     0
 10
63.3815
 20
4.21679
 30
0.0
 11
52.9332
 21
4.51997
 31
0.0
  0
LINE
  8
0
 62
     0
 10
52.9332
 20
4.51997
 30
0.0
 11
41.3812
 21
4.76663
 31
0.0
  0
LINE
  8
0
 62
     0
 10
41.3812
 20
4.76663
 30
0.0
 11
28.8189
 21
4.94993
 31
0.0
  0
LINE
  8
0
 62
     0
 10
28.8189
 20
4.94993
 30
0.0
 11
15.3417
 21
5.06293
 31
0.0
  0
LINE
  8
0
 62
     0
 10
15.3417
 20
5.06293
 30
0.0
 11
1.04455
 21
5.10148
 31
0.0
  0
LINE
  8
0
 62
     0
 10
1.04455
 20
5.10148
 30
0.0
 11
1.04455
 21
53.8057
 31
0.0
  0
LINE
  8
0
 62
     0
 10
1.04455
 20
53.8057
 30
0.0
 11
1.60128
 21
53.8057
 31
0.0
  0
ENDSEC
  0
EOF
